<svg xmlns="http://www.w3.org/2000/svg" width="5956.2" height="771.3" viewBox="0 0 5956.2 771.3">
  <title>ARDOT Undivided Highway</title>
  <rect width="5956.2" height="771.3" fill="white"/>
  <g transform="scale(1,-1)">
    <g transform="translate(0,-771.3)">
      <polygon points="4075.08,380.23 4075.08,375.15 3739.80,368.45 3739.80,373.53" fill="#2C3E50" stroke="black" stroke-width="1"/>
      <polygon points="4075.08,375.15 4075.08,370.07 3739.80,363.37 3739.80,368.45" fill="#2C3E50" stroke="black" stroke-width="1"/>
      <polygon points="4075.08,370.07 4075.08,362.45 3739.80,355.75 3739.80,363.37" fill="#2C3E50" stroke="black" stroke-width="1"/>
      <polygon points="4075.08,362.45 4075.08,347.21 3739.80,340.51 3739.80,355.75" fill="#7F8C8D" stroke="black" stroke-width="1"/>
      <polygon points="3739.80,373.53 3739.80,368.45 3648.36,366.01 3678.84,371.09" fill="#2C3E50" stroke="black" stroke-width="1"/>
      <polygon points="3739.80,368.45 3739.80,340.51 3480.72,338.07 3648.36,366.01" fill="#7F8C8D" stroke="black" stroke-width="1"/>
      <polygon points="3480.72,338.07 3480.72,337.07 3419.76,334.63 3419.76,335.63" fill="#BDC3C7" stroke="black" stroke-width="1"/>
      <polygon points="3419.76,335.63 3419.76,334.63 3054.00,320.00 3054.00,321.00" fill="#BDC3C7" stroke="black" stroke-width="1"/>
      <polygon points="3054.00,321.00 3054.00,320.00 2254.00,120.00 2254.00,121.00" fill="#BDC3C7" stroke="black" stroke-width="1"/>
      <polygon points="2254.00,121.00 2254.00,120.00 1654.00,320.00 1654.00,321.00" fill="#BDC3C7" stroke="black" stroke-width="1"/>
      <polygon points="4075.08,380.23 4410.36,373.53 4410.36,368.45 4075.08,375.15" fill="#2C3E50" stroke="black" stroke-width="1"/>
      <polygon points="4075.08,375.15 4410.36,368.45 4410.36,363.37 4075.08,370.07" fill="#2C3E50" stroke="black" stroke-width="1"/>
      <polygon points="4075.08,370.07 4410.36,363.37 4410.36,355.75 4075.08,362.45" fill="#2C3E50" stroke="black" stroke-width="1"/>
      <polygon points="4075.08,362.45 4410.36,355.75 4410.36,340.51 4075.08,347.21" fill="#7F8C8D" stroke="black" stroke-width="1"/>
      <polygon points="4410.36,373.53 4471.32,371.09 4501.80,366.01 4410.36,368.45" fill="#2C3E50" stroke="black" stroke-width="1"/>
      <polygon points="4410.36,368.45 4501.80,366.01 4669.44,338.07 4410.36,340.51" fill="#7F8C8D" stroke="black" stroke-width="1"/>
      <polygon points="4669.44,338.07 4730.40,335.63 4730.40,334.63 4669.44,337.07" fill="#BDC3C7" stroke="black" stroke-width="1"/>
      <polygon points="4730.40,335.63 5096.16,321.00 5096.16,320.00 4730.40,334.63" fill="#BDC3C7" stroke="black" stroke-width="1"/>
      <polygon points="5096.16,321.00 5896.16,121.00 5896.16,120.00 5096.16,320.00" fill="#BDC3C7" stroke="black" stroke-width="1"/>
      <!-- Annotations -->
      <text x="3907.44" y="400.23" font-family="Arial" font-size="15.0" text-anchor="middle" transform="translate(0,800.47) scale(1,-1)" fill="black">Lane</text>
      <text x="3610.26" y="393.53" font-family="Arial" font-size="15.0" text-anchor="middle" transform="translate(0,787.05) scale(1,-1)" fill="black">Shoulder</text>
      <text x="3390.24" y="418.07" font-family="Arial" font-size="15.0" text-anchor="middle" transform="translate(0,836.14) scale(1,-1)" fill="black">Slope 25.0:1</text>
      <text x="3236.88" y="355.63" font-family="Arial" font-size="15.0" text-anchor="middle" transform="translate(0,711.26) scale(1,-1)" fill="black">Slope 25.0:1</text>
      <text x="2654.00" y="341.00" font-family="Arial" font-size="15.0" text-anchor="middle" transform="translate(0,682.00) scale(1,-1)" fill="black">Slope 4.0:1</text>
      <text x="1954.00" y="341.00" font-family="Arial" font-size="15.0" text-anchor="middle" transform="translate(0,682.00) scale(1,-1)" fill="black">Slope 3.0:1</text>
      <text x="1622.00" y="593.04" font-family="Arial" font-size="15.0" text-anchor="middle" transform="translate(0,1186.09) scale(1,-1)" fill="black">Lane</text>
      <text x="1686.00" y="593.04" font-family="Arial" font-size="15.0" text-anchor="middle" transform="translate(0,1186.09) scale(1,-1)" fill="black">Shoulder</text>
      <text x="4699.92" y="358.07" font-family="Arial" font-size="15.0" text-anchor="middle" transform="translate(0,716.14) scale(1,-1)" fill="black">Slope 25.0:1</text>
      <text x="4913.28" y="355.63" font-family="Arial" font-size="15.0" text-anchor="middle" transform="translate(0,711.26) scale(1,-1)" fill="black">Slope 25.0:1</text>
      <text x="5496.16" y="341.00" font-family="Arial" font-size="15.0" text-anchor="middle" transform="translate(0,682.00) scale(1,-1)" fill="black">Slope 4.0:1</text>
      <g id="dimension-d9b0f9f3">
        <line x1="4075.08" y1="380.23" x2="4075.08" y2="330.23" stroke="black" stroke-width="0.5"/>
        <line x1="3739.80" y1="380.23" x2="3739.80" y2="330.23" stroke="black" stroke-width="0.5"/>
        <line x1="4075.08" y1="330.23" x2="3739.80" y2="330.23" stroke="black" stroke-width="1"/>
        <polygon points="4075.08,330.23 4070.08,327.73 4070.08,332.73" fill="black" transform="rotate(360.0,4075.08,330.23)"/>
        <polygon points="3739.80,330.23 3734.80,327.73 3734.80,332.73" fill="black" transform="rotate(180.0,3739.80,330.23)"/>
        <text x="3907.44" y="324.23" font-family="Arial" font-size="12.0" text-anchor="middle" transform="translate(0,648.47) scale(1,-1)" fill="black">3.35m</text>
      </g>
      <g id="symbol-8f4e10ef" transform="translate(3987.44,495.23) scale(1.0) rotate(-180.0)">

        <g>
            <path d="M -5,-15 L 5,-15 L 5,0 L 9,0 L 0,15 L -9,0 L -5,0 Z"
                  fill="black" stroke="black" stroke-width="1"/>
        </g>
    
      </g>
      <g id="symbol-db08f6d3" transform="translate(1749.89,603.43) scale(0.8) rotate(-180.0)">

        <g>
            <path d="M -10,0 L 8,0 L 8,-5 L 15,0 L 8,5 L 8,0 Z"
                  fill="black" stroke="black" stroke-width="0.75"/>
        </g>
    
      </g>
      <text x="1783.78" y="590.54" font-family="Arial" font-size="10.0" text-anchor="middle" transform="translate(0,1181.09) scale(1,-1)" fill="black">2%</text>
      <text x="3967.44" y="420.37" font-family="Arial" font-size="12.0" text-anchor="middle" transform="translate(0,840.74) scale(1,-1)" fill="black">Asphalt</text>
      <g id="dimension-6075b210">
        <line x1="3739.80" y1="373.53" x2="3739.80" y2="323.53" stroke="black" stroke-width="0.5"/>
        <line x1="3480.72" y1="373.53" x2="3480.72" y2="323.53" stroke="black" stroke-width="0.5"/>
        <line x1="3739.80" y1="323.53" x2="3480.72" y2="323.53" stroke="black" stroke-width="1"/>
        <polygon points="3739.80,323.53 3734.80,321.03 3734.80,326.03" fill="black" transform="rotate(360.0,3739.80,323.53)"/>
        <polygon points="3480.72,323.53 3475.72,321.03 3475.72,326.03" fill="black" transform="rotate(180.0,3480.72,323.53)"/>
        <text x="3610.26" y="317.53" font-family="Arial" font-size="12.0" text-anchor="middle" transform="translate(0,635.05) scale(1,-1)" fill="black">0.61m</text>
      </g>
      <g id="symbol-791dec58" transform="translate(1817.67,603.43) scale(0.8) rotate(-180.0)">

        <g>
            <path d="M -10,0 L 8,0 L 8,-5 L 15,0 L 8,5 L 8,0 Z"
                  fill="black" stroke="black" stroke-width="0.75"/>
        </g>
    
      </g>
      <text x="1851.55" y="590.54" font-family="Arial" font-size="10.0" text-anchor="middle" transform="translate(0,1181.09) scale(1,-1)" fill="black">4%</text>
      <text x="3670.26" y="295.80" font-family="Arial" font-size="12.0" text-anchor="middle" transform="translate(0,591.60) scale(1,-1)" fill="black">Asphalt</text>
      <g id="dimension-65b74b2d">
        <line x1="4075.08" y1="395.23" x2="4075.08" y2="445.23" stroke="black" stroke-width="0.5"/>
        <line x1="4410.36" y1="395.23" x2="4410.36" y2="445.23" stroke="black" stroke-width="0.5"/>
        <line x1="4075.08" y1="445.23" x2="4410.36" y2="445.23" stroke="black" stroke-width="1"/>
        <polygon points="4075.08,445.23 4070.08,442.73 4070.08,447.73" fill="black" transform="rotate(180.0,4075.08,445.23)"/>
        <polygon points="4410.36,445.23 4405.36,442.73 4405.36,447.73" fill="black" transform="rotate(0.0,4410.36,445.23)"/>
        <text x="4242.72" y="451.23" font-family="Arial" font-size="12.0" text-anchor="middle" transform="translate(0,902.47) scale(1,-1)" fill="black">3.35m</text>
      </g>
      <g id="symbol-c7939b30" transform="translate(4242.72,305.23) scale(1.0) rotate(-0.0)">

        <g>
            <path d="M -5,-15 L 5,-15 L 5,0 L 9,0 L 0,15 L -9,0 L -5,0 Z"
                  fill="black" stroke="black" stroke-width="1"/>
        </g>
    
      </g>
      <g id="symbol-af4a8d75" transform="translate(1883.55,593.54) scale(0.8) rotate(-0.0)">

        <g>
            <path d="M -10,0 L 8,0 L 8,-5 L 15,0 L 8,5 L 8,0 Z"
                  fill="black" stroke="black" stroke-width="0.75"/>
        </g>
    
      </g>
      <text x="1915.55" y="590.54" font-family="Arial" font-size="10.0" text-anchor="middle" transform="translate(0,1181.09) scale(1,-1)" fill="black">2%</text>
      <text x="4302.72" y="300.37" font-family="Arial" font-size="12.0" text-anchor="middle" transform="translate(0,600.74) scale(1,-1)" fill="black">Asphalt</text>
      <g id="dimension-62cd79a2">
        <line x1="4410.36" y1="388.53" x2="4410.36" y2="438.53" stroke="black" stroke-width="0.5"/>
        <line x1="4669.44" y1="388.53" x2="4669.44" y2="438.53" stroke="black" stroke-width="0.5"/>
        <line x1="4410.36" y1="438.53" x2="4669.44" y2="438.53" stroke="black" stroke-width="1"/>
        <polygon points="4410.36,438.53 4405.36,436.03 4405.36,441.03" fill="black" transform="rotate(180.0,4410.36,438.53)"/>
        <polygon points="4669.44,438.53 4664.44,436.03 4664.44,441.03" fill="black" transform="rotate(0.0,4669.44,438.53)"/>
        <text x="4539.90" y="444.53" font-family="Arial" font-size="12.0" text-anchor="middle" transform="translate(0,889.05) scale(1,-1)" fill="black">0.61m</text>
      </g>
      <g id="symbol-38291dd2" transform="translate(1947.55,593.54) scale(0.8) rotate(-0.0)">

        <g>
            <path d="M -10,0 L 8,0 L 8,-5 L 15,0 L 8,5 L 8,0 Z"
                  fill="black" stroke="black" stroke-width="0.75"/>
        </g>
    
      </g>
      <text x="1979.55" y="590.54" font-family="Arial" font-size="10.0" text-anchor="middle" transform="translate(0,1181.09) scale(1,-1)" fill="black">4%</text>
      <text x="4539.90" y="295.80" font-family="Arial" font-size="12.0" text-anchor="middle" transform="translate(0,591.60) scale(1,-1)" fill="black">Asphalt</text>
    </g>
  </g>
  <!-- Legend -->
  <text x="10" y="20" font-family="Arial" font-size="14" font-weight="bold">ARDOT Undivided Highway</text>
  <rect x="10" y="40" width="15" height="15" fill="#2C3E50"/>
  <text x="30" y="52" font-family="Arial" font-size="12">AsphaltLayer</text>
  <rect x="10" y="60" width="15" height="15" fill="#7F8C8D"/>
  <text x="30" y="72" font-family="Arial" font-size="12">CrushedRockLayer</text>
  <!-- Scale -->
  <line x1="10" y1="741.3211763814897" x2="1533.9999512320014" y2="741.3211763814897" stroke="black" stroke-width="2"/>
  <line x1="10" y1="736.3211763814897" x2="10" y2="746.3211763814897" stroke="black" stroke-width="2"/>
  <line x1="1533.9999512320014" y1="736.3211763814897" x2="1533.9999512320014" y2="746.3211763814897" stroke="black" stroke-width="2"/>
  <text x="771.9999756160007" y="761.3211763814897" font-family="Arial" font-size="12" text-anchor="middle">50ft</text>
</svg>
