<svg xmlns="http://www.w3.org/2000/svg" width="1662.2" height="379.8" viewBox="0 0 1662.2 379.8">
  <title>ARDOT Undivided Notch and Widen</title>
  <rect width="1662.2" height="379.8" fill="white"/>
  <g transform="scale(1,-1)">
    <g transform="translate(0,-379.8)">
      <polygon points="1073.34,186.09 1073.34,176.95 980.43,175.09 980.43,184.23" fill="#BDC3C7" stroke="black" stroke-width="1"/>
      <polygon points="1073.34,185.78 1073.34,184.23 980.43,186.09 980.43,187.64" fill="#2C3E50" stroke="black" stroke-width="1"/>
      <polygon points="980.43,185.78 980.43,184.23 971.92,183.89 962.63,183.52 962.63,185.07 971.92,185.44" fill="#2C3E50" stroke="black" stroke-width="1"/>
      <polygon points="980.43,184.23 980.43,182.69 971.92,182.35 962.63,181.97 962.63,183.52 971.92,183.89" fill="#2C3E50" stroke="black" stroke-width="1"/>
      <polygon points="980.43,182.69 980.43,180.36 971.92,180.02 962.63,179.65 962.63,181.97 971.92,182.35" fill="#2C3E50" stroke="black" stroke-width="1"/>
      <polygon points="980.43,180.36 980.43,175.72 971.92,175.38 962.63,175.01 962.63,179.65 971.92,180.02" fill="#7F8C8D" stroke="black" stroke-width="1"/>
      <polygon points="962.63,185.07 962.63,183.52 934.76,182.78 944.05,184.33" fill="#2C3E50" stroke="black" stroke-width="1"/>
      <polygon points="962.63,183.52 962.63,175.01 883.66,174.26 934.76,182.78" fill="#7F8C8D" stroke="black" stroke-width="1"/>
      <polygon points="883.66,174.26 883.66,173.96 865.08,173.21 865.08,173.52" fill="#BDC3C7" stroke="black" stroke-width="1"/>
      <polygon points="865.08,173.52 865.08,173.21 753.60,168.76 753.60,169.06" fill="#BDC3C7" stroke="black" stroke-width="1"/>
      <polygon points="753.60,169.06 753.60,168.76 509.76,107.80 509.76,108.10" fill="#BDC3C7" stroke="black" stroke-width="1"/>
      <polygon points="1073.34,186.09 1166.24,184.23 1166.24,175.09 1073.34,176.95" fill="#BDC3C7" stroke="black" stroke-width="1"/>
      <polygon points="1073.34,185.78 1166.24,187.64 1166.24,186.09 1073.34,184.23" fill="#2C3E50" stroke="black" stroke-width="1"/>
      <polygon points="1166.24,185.78 1174.76,185.44 1184.05,185.07 1184.05,183.52 1174.76,183.89 1166.24,184.23" fill="#2C3E50" stroke="black" stroke-width="1"/>
      <polygon points="1166.24,184.23 1174.76,183.89 1184.05,183.52 1184.05,181.97 1174.76,182.35 1166.24,182.69" fill="#2C3E50" stroke="black" stroke-width="1"/>
      <polygon points="1166.24,182.69 1174.76,182.35 1184.05,181.97 1184.05,179.65 1174.76,180.02 1166.24,180.36" fill="#2C3E50" stroke="black" stroke-width="1"/>
      <polygon points="1166.24,180.36 1174.76,180.02 1184.05,179.65 1184.05,175.01 1174.76,175.38 1166.24,175.72" fill="#7F8C8D" stroke="black" stroke-width="1"/>
      <polygon points="1184.05,185.07 1202.63,184.33 1211.92,182.78 1184.05,183.52" fill="#2C3E50" stroke="black" stroke-width="1"/>
      <polygon points="1184.05,183.52 1211.92,182.78 1263.01,174.26 1184.05,175.01" fill="#7F8C8D" stroke="black" stroke-width="1"/>
      <polygon points="1263.01,174.26 1281.59,173.52 1281.59,173.21 1263.01,173.96" fill="#BDC3C7" stroke="black" stroke-width="1"/>
      <polygon points="1281.59,173.52 1393.08,169.06 1393.08,168.76 1281.59,173.21" fill="#BDC3C7" stroke="black" stroke-width="1"/>
      <polygon points="1393.08,169.06 1636.92,108.10 1636.92,107.80 1393.08,168.76" fill="#BDC3C7" stroke="black" stroke-width="1"/>
      <!-- Annotations -->
      <text x="1054.44" y="185.94" font-family="Arial" font-size="3.7" text-anchor="middle" transform="translate(0,371.87) scale(1,-1)" fill="black">Asphalt</text>
      <text x="971.53" y="180.39" font-family="Arial" font-size="3.7" text-anchor="middle" transform="translate(0,360.79) scale(1,-1)" fill="black">Asphalt</text>
      <g id="symbol-cfb665f1" transform="translate(923.14,198.79) scale(0.8) rotate(-180.0)">

        <g>
            <path d="M -10,0 L 8,0 L 8,-5 L 15,0 L 8,5 L 8,0 Z"
                  fill="black" stroke="black" stroke-width="0.75"/>
        </g>
    
      </g>
      <text x="923.14" y="195.13" font-family="Arial" font-size="3.0" text-anchor="middle" transform="translate(0,390.26) scale(1,-1)" fill="black">4%</text>
      <text x="923.14" y="179.67" font-family="Arial" font-size="3.7" text-anchor="middle" transform="translate(0,359.33) scale(1,-1)" fill="black">Asphalt</text>
      <text x="1119.79" y="185.94" font-family="Arial" font-size="3.7" text-anchor="middle" transform="translate(0,371.87) scale(1,-1)" fill="black">Asphalt</text>
      <text x="1326.91" y="180.39" font-family="Arial" font-size="3.7" text-anchor="middle" transform="translate(0,360.79) scale(1,-1)" fill="black">Asphalt</text>
      <g id="symbol-8d7d676b" transform="translate(1223.53,198.79) scale(0.8) rotate(-0.0)">

        <g>
            <path d="M -10,0 L 8,0 L 8,-5 L 15,0 L 8,5 L 8,0 Z"
                  fill="black" stroke="black" stroke-width="0.75"/>
        </g>
    
      </g>
      <text x="1223.53" y="195.13" font-family="Arial" font-size="3.0" text-anchor="middle" transform="translate(0,390.26) scale(1,-1)" fill="black">4%</text>
      <text x="1392.25" y="179.67" font-family="Arial" font-size="3.7" text-anchor="middle" transform="translate(0,359.33) scale(1,-1)" fill="black">Asphalt</text>
      <g id="dimension-9c64c728">
        <line x1="980.43" y1="192.21" x2="980.43" y2="244.03" stroke="black" stroke-width="0.5"/>
        <line x1="1073.34" y1="192.21" x2="1073.34" y2="244.03" stroke="black" stroke-width="0.5"/>
        <line x1="980.43" y1="244.03" x2="1073.34" y2="244.03" stroke="black" stroke-width="1"/>
        <polygon points="980.43,244.03 975.43,241.53 975.43,246.53" fill="black" transform="rotate(180.0,980.43,244.03)"/>
        <polygon points="1073.34,244.03 1068.34,241.53 1068.34,246.53" fill="black" transform="rotate(0.0,1073.34,244.03)"/>
        <text x="1026.88" y="245.86" font-family="Arial" font-size="3.7" text-anchor="middle" transform="translate(0,491.71) scale(1,-1)" fill="black">10'</text>
      </g>
      <text x="1094.73" y="239.46" font-family="Arial" font-size="4.6" text-anchor="middle" transform="translate(0,478.91) scale(1,-1)" fill="black">MillAndOverlay</text>
      <g id="dimension-516d3f8a">
        <line x1="883.66" y1="189.64" x2="883.66" y2="244.03" stroke="black" stroke-width="0.5"/>
        <line x1="962.63" y1="189.64" x2="962.63" y2="244.03" stroke="black" stroke-width="0.5"/>
        <line x1="883.66" y1="244.03" x2="962.63" y2="244.03" stroke="black" stroke-width="1"/>
        <polygon points="883.66,244.03 878.66,241.53 878.66,246.53" fill="black" transform="rotate(180.0,883.66,244.03)"/>
        <polygon points="962.63,244.03 957.63,241.53 957.63,246.53" fill="black" transform="rotate(0.0,962.63,244.03)"/>
        <text x="923.14" y="245.86" font-family="Arial" font-size="3.7" text-anchor="middle" transform="translate(0,491.71) scale(1,-1)" fill="black">2'</text>
      </g>
      <text x="949.83" y="231.84" font-family="Arial" font-size="4.6" text-anchor="middle" transform="translate(0,463.67) scale(1,-1)" fill="black">Shoulder</text>
      <g id="dimension-71d7042a">
        <line x1="1073.34" y1="192.21" x2="1073.34" y2="244.03" stroke="black" stroke-width="0.5"/>
        <line x1="1166.24" y1="192.21" x2="1166.24" y2="244.03" stroke="black" stroke-width="0.5"/>
        <line x1="1073.34" y1="244.03" x2="1166.24" y2="244.03" stroke="black" stroke-width="1"/>
        <polygon points="1073.34,244.03 1068.34,241.53 1068.34,246.53" fill="black" transform="rotate(180.0,1073.34,244.03)"/>
        <polygon points="1166.24,244.03 1161.24,241.53 1161.24,246.53" fill="black" transform="rotate(0.0,1166.24,244.03)"/>
        <text x="1119.79" y="245.86" font-family="Arial" font-size="3.7" text-anchor="middle" transform="translate(0,491.71) scale(1,-1)" fill="black">10'</text>
      </g>
      <text x="1294.23" y="231.84" font-family="Arial" font-size="4.6" text-anchor="middle" transform="translate(0,463.67) scale(1,-1)" fill="black">MillAndOverlay</text>
      <g id="dimension-63207432">
        <line x1="1184.05" y1="189.64" x2="1184.05" y2="244.03" stroke="black" stroke-width="0.5"/>
        <line x1="1263.01" y1="189.64" x2="1263.01" y2="244.03" stroke="black" stroke-width="0.5"/>
        <line x1="1184.05" y1="244.03" x2="1263.01" y2="244.03" stroke="black" stroke-width="1"/>
        <polygon points="1184.05,244.03 1179.05,241.53 1179.05,246.53" fill="black" transform="rotate(180.0,1184.05,244.03)"/>
        <polygon points="1263.01,244.03 1258.01,241.53 1258.01,246.53" fill="black" transform="rotate(0.0,1263.01,244.03)"/>
        <text x="1223.53" y="245.86" font-family="Arial" font-size="3.7" text-anchor="middle" transform="translate(0,491.71) scale(1,-1)" fill="black">2'</text>
      </g>
      <text x="1413.96" y="231.84" font-family="Arial" font-size="4.6" text-anchor="middle" transform="translate(0,463.67) scale(1,-1)" fill="black">Shoulder</text>
      <text x="631.68" y="231.84" font-family="Arial" font-size="4.6" text-anchor="middle" transform="translate(0,463.67) scale(1,-1)" fill="black">Slope 4.0:1</text>
      <text x="809.34" y="231.84" font-family="Arial" font-size="4.6" text-anchor="middle" transform="translate(0,463.67) scale(1,-1)" fill="black">Slope 25.0:1</text>
      <text x="874.37" y="262.32" font-family="Arial" font-size="4.6" text-anchor="middle" transform="translate(0,524.63) scale(1,-1)" fill="black">Slope 25.0:1</text>
      <text x="1021.76" y="231.84" font-family="Arial" font-size="4.6" text-anchor="middle" transform="translate(0,463.67) scale(1,-1)" fill="black">NotchAndWidening</text>
      <text x="1087.11" y="262.32" font-family="Arial" font-size="4.6" text-anchor="middle" transform="translate(0,524.63) scale(1,-1)" fill="black">ExistingPavement</text>
      <text x="1306.42" y="244.03" font-family="Arial" font-size="4.6" text-anchor="middle" transform="translate(0,488.06) scale(1,-1)" fill="black">ExistingPavement</text>
      <text x="1359.58" y="231.84" font-family="Arial" font-size="4.6" text-anchor="middle" transform="translate(0,463.67) scale(1,-1)" fill="black">NotchAndWidening</text>
      <text x="1444.44" y="262.32" font-family="Arial" font-size="4.6" text-anchor="middle" transform="translate(0,524.63) scale(1,-1)" fill="black">Slope 25.0:1</text>
      <text x="1472.78" y="239.46" font-family="Arial" font-size="4.6" text-anchor="middle" transform="translate(0,478.91) scale(1,-1)" fill="black">Slope 25.0:1</text>
      <text x="1527.19" y="244.03" font-family="Arial" font-size="4.6" text-anchor="middle" transform="translate(0,488.06) scale(1,-1)" fill="black">Slope 4.0:1</text>
      <g id="leader-dfb59b31">
        <polyline points="1166.24,185.94 1176.91,92.56 1181.48,92.56" fill="none" stroke="black" stroke-width="1"/>
        <polygon points="1166.24,185.94 1161.24,183.44 1161.24,188.44" fill="black" transform="rotate(96.51722785044124,1166.24,185.94)"/>
        <text x="1186.48" y="92.56" font-family="Arial" font-size="4.6" text-anchor="start" transform="translate(0,185.11) scale(1,-1)" fill="black">Asphalt (2")</text>
      </g>
      <g id="leader-4fc5ecbb">
        <polyline points="1184.05,177.68 1194.71,87.07 1199.29,87.07" fill="none" stroke="black" stroke-width="1"/>
        <polygon points="1184.05,177.68 1179.05,175.18 1179.05,180.18" fill="black" transform="rotate(96.71440792395964,1184.05,177.68)"/>
        <text x="1204.29" y="87.07" font-family="Arial" font-size="4.6" text-anchor="start" transform="translate(0,174.14) scale(1,-1)" fill="black">Aggregate Base (6")</text>
      </g>
    </g>
  </g>
  <!-- Legend -->
  <text x="10" y="20" font-family="Arial" font-size="14" font-weight="bold">ARDOT Undivided Notch and Widen</text>
  <rect x="10" y="40" width="15" height="15" fill="#2C3E50"/>
  <text x="30" y="52" font-family="Arial" font-size="12">AsphaltLayer</text>
  <rect x="10" y="60" width="15" height="15" fill="#7F8C8D"/>
  <text x="30" y="72" font-family="Arial" font-size="12">CrushedRockLayer</text>
  <!-- Scale -->
  <line x1="10" y1="349.84260800000095" x2="474.51518513551406" y2="349.84260800000095" stroke="black" stroke-width="2"/>
  <line x1="10" y1="344.84260800000095" x2="10" y2="354.84260800000095" stroke="black" stroke-width="2"/>
  <line x1="474.51518513551406" y1="344.84260800000095" x2="474.51518513551406" y2="354.84260800000095" stroke="black" stroke-width="2"/>
  <text x="242.25759256775703" y="369.84260800000095" font-family="Arial" font-size="12" text-anchor="middle">50ft</text>
</svg>
