<svg xmlns="http://www.w3.org/2000/svg" width="2578.5" height="357.5" viewBox="0 0 2578.5 357.5">
  <title>Two-Lane Road: Cut Section (Left) vs Fill Section (Right)</title>
  <rect width="2578.5" height="357.5" fill="white"/>
  <g transform="scale(1,-1)">
    <g transform="translate(0,-357.5)">
      <polygon points="1586.50,152.40 1586.50,149.90 1406.50,146.30 1406.50,148.80" fill="#2C3E50" stroke="black" stroke-width="1"/>
      <polygon points="1586.50,149.90 1586.50,146.15 1406.50,142.55 1406.50,146.30" fill="#2C3E50" stroke="black" stroke-width="1"/>
      <polygon points="1586.50,146.15 1586.50,136.15 1406.50,132.55 1406.50,142.55" fill="#7F8C8D" stroke="black" stroke-width="1"/>
      <polygon points="1406.50,148.80 1406.50,146.80 1314.50,145.00 1316.50,147.00" fill="#2C3E50" stroke="black" stroke-width="1"/>
      <polygon points="1406.50,146.80 1406.50,144.30 1312.00,142.50 1314.50,145.00" fill="#2C3E50" stroke="black" stroke-width="1"/>
      <polygon points="1406.50,144.30 1406.50,134.30 1229.50,132.50 1316.50,147.00 1312.00,142.50" fill="#7F8C8D" stroke="black" stroke-width="1"/>
      <polyline points="1229.50,132.50 967.00,132.50 1079.50,95.00" fill="none" stroke="black" stroke-width="1.5"/>
      <polygon points="967.00,132.50 967.00,132.00 817.00,169.50 817.00,170.00" fill="#BDC3C7" stroke="black" stroke-width="1"/>
      <polygon points="1586.50,152.40 1766.50,148.80 1766.50,146.30 1586.50,149.90" fill="#2C3E50" stroke="black" stroke-width="1"/>
      <polygon points="1586.50,149.90 1766.50,146.30 1766.50,142.55 1586.50,146.15" fill="#2C3E50" stroke="black" stroke-width="1"/>
      <polygon points="1586.50,146.15 1766.50,142.55 1766.50,132.55 1586.50,136.15" fill="#7F8C8D" stroke="black" stroke-width="1"/>
      <polygon points="1766.50,148.80 1856.50,147.00 1858.50,145.00 1766.50,146.80" fill="#2C3E50" stroke="black" stroke-width="1"/>
      <polygon points="1766.50,146.80 1858.50,145.00 1861.00,142.50 1766.50,144.30" fill="#2C3E50" stroke="black" stroke-width="1"/>
      <polygon points="1766.50,144.30 1861.00,142.50 1856.50,147.00 1943.50,132.50 1766.50,134.30" fill="#7F8C8D" stroke="black" stroke-width="1"/>
      <polygon points="1943.50,132.50 2543.50,232.50 2543.50,232.00 1943.50,132.00" fill="#BDC3C7" stroke="black" stroke-width="1"/>
    </g>
  </g>
  <!-- Legend -->
  <text x="10" y="20" font-family="Arial" font-size="14" font-weight="bold">Two-Lane Road: Cut Section (Left) vs Fill Section (Right)</text>
  <rect x="10" y="40" width="15" height="15" fill="#2C3E50"/>
  <text x="30" y="52" font-family="Arial" font-size="12">AsphaltLayer</text>
  <rect x="10" y="60" width="15" height="15" fill="#7F8C8D"/>
  <text x="30" y="72" font-family="Arial" font-size="12">CrushedRockLayer</text>
  <!-- Scale -->
  <line x1="10" y1="327.5000000000003" x2="771.9999756160007" y2="327.5000000000003" stroke="black" stroke-width="2"/>
  <line x1="10" y1="322.5000000000003" x2="10" y2="332.5000000000003" stroke="black" stroke-width="2"/>
  <line x1="771.9999756160007" y1="322.5000000000003" x2="771.9999756160007" y2="332.5000000000003" stroke="black" stroke-width="2"/>
  <text x="390.99998780800036" y="347.5000000000003" font-family="Arial" font-size="12" text-anchor="middle">50ft</text>
</svg>
