<svg xmlns="http://www.w3.org/2000/svg" width="318.1" height="339.5" viewBox="0 0 318.1 339.5">
  <title>Barrier Demo - w_beam</title>
  <rect width="318.1" height="339.5" fill="white"/>
  <g transform="scale(1,-1)">
    <g transform="translate(0,-339.5)">
      <polygon points="60.00,181.92 258.12,181.92 258.12,175.92 60.00,175.92" fill="#BDC3C7" stroke="black" stroke-width="1"/>
      <polygon points="60.00,175.92 258.12,175.92 258.12,157.92 60.00,157.92" fill="#BDC3C7" stroke="black" stroke-width="1"/>
      <polygon points="133.15,279.46 157.54,279.46 157.54,236.78 133.15,236.78" fill="#BDC3C7" stroke="black" stroke-width="1"/>
      <polygon points="157.54,279.46 184.97,279.46 184.97,60.00 157.54,60.00" fill="#BDC3C7" stroke="black" stroke-width="1"/>
      <polyline points="133.15,236.78 124.01,247.45 133.15,258.12 124.01,268.79 133.15,279.46" fill="none" stroke="black" stroke-width="1.5"/>
    </g>
  </g>
  <!-- Legend -->
  <text x="10" y="20" font-family="Arial" font-size="14" font-weight="bold">Barrier Demo - w_beam</text>
  <!-- Scale -->
  <line x1="10" y1="309.456" x2="192.8799941478402" y2="309.456" stroke="black" stroke-width="2"/>
  <line x1="10" y1="304.456" x2="10" y2="314.456" stroke="black" stroke-width="2"/>
  <line x1="192.8799941478402" y1="304.456" x2="192.8799941478402" y2="314.456" stroke="black" stroke-width="2"/>
  <text x="101.4399970739201" y="329.456" font-family="Arial" font-size="12" text-anchor="middle">5ft</text>
</svg>
