<svg xmlns="http://www.w3.org/2000/svg" width="872.0" height="401.6" viewBox="0 0 872.0 401.6">
  <title>Two-Lane Road with Curb and Gutter</title>
  <rect width="872.0" height="401.6" fill="white"/>
  <g transform="scale(1,-1)">
    <g transform="translate(0,-401.6)">
      <polygon points="551.08,160.85 551.08,158.35 371.08,154.75 371.08,157.25" fill="#2C3E50" stroke="black" stroke-width="1"/>
      <polygon points="551.08,158.35 551.08,154.60 371.08,151.00 371.08,154.75" fill="#2C3E50" stroke="black" stroke-width="1"/>
      <polygon points="551.08,154.60 551.08,144.60 371.08,141.00 371.08,151.00" fill="#7F8C8D" stroke="black" stroke-width="1"/>
      <polygon points="371.08,157.25 371.08,142.01 340.60,142.01 340.60,156.00 340.60,161.08 343.14,161.08 348.22,156.00" fill="#95A5A6" stroke="black" stroke-width="1"/>
      <polygon points="551.08,160.85 731.08,157.25 731.08,154.75 551.08,158.35" fill="#2C3E50" stroke="black" stroke-width="1"/>
      <polygon points="551.08,158.35 731.08,154.75 731.08,151.00 551.08,154.60" fill="#2C3E50" stroke="black" stroke-width="1"/>
      <polygon points="551.08,154.60 731.08,151.00 731.08,141.00 551.08,144.60" fill="#7F8C8D" stroke="black" stroke-width="1"/>
      <polygon points="731.08,157.25 753.94,156.00 759.02,161.08 761.56,161.08 761.56,156.00 761.56,142.01 731.08,142.01" fill="#95A5A6" stroke="black" stroke-width="1"/>
      <!-- Annotations -->
      <g id="symbol-501b87b2" transform="translate(461.08,203.35) scale(1.0) rotate(-180.0)">

        <g>
            <path d="M -5,-15 L 5,-15 L 5,0 L 9,0 L 0,15 L -9,0 L -5,0 Z"
                  fill="black" stroke="black" stroke-width="1"/>
        </g>
    
      </g>
      <g id="symbol-2cf1a8d6" transform="translate(461.08,183.35) scale(0.8) rotate(-180.0)">

        <g>
            <path d="M -10,0 L 8,0 L 8,-5 L 15,0 L 8,5 L 8,0 Z"
                  fill="black" stroke="black" stroke-width="0.75"/>
        </g>
    
      </g>
      <text x="461.08" y="177.35" font-family="Arial" font-size="5.0" text-anchor="middle" transform="translate(0,354.70) scale(1,-1)" fill="black">2%</text>
      <text x="461.08" y="150.93" font-family="Arial" font-size="6.0" text-anchor="middle" transform="translate(0,301.85) scale(1,-1)" fill="black">Asphalt</text>
      <text x="355.84" y="151.55" font-family="Arial" font-size="6.0" text-anchor="middle" transform="translate(0,303.09) scale(1,-1)" fill="black">Concrete</text>
      <g id="symbol-a3a418ff" transform="translate(641.08,203.35) scale(1.0) rotate(-0.0)">

        <g>
            <path d="M -5,-15 L 5,-15 L 5,0 L 9,0 L 0,15 L -9,0 L -5,0 Z"
                  fill="black" stroke="black" stroke-width="1"/>
        </g>
    
      </g>
      <g id="symbol-96ea7706" transform="translate(641.08,183.35) scale(0.8) rotate(-0.0)">

        <g>
            <path d="M -10,0 L 8,0 L 8,-5 L 15,0 L 8,5 L 8,0 Z"
                  fill="black" stroke="black" stroke-width="0.75"/>
        </g>
    
      </g>
      <text x="641.08" y="177.35" font-family="Arial" font-size="5.0" text-anchor="middle" transform="translate(0,354.70) scale(1,-1)" fill="black">2%</text>
      <text x="641.08" y="150.93" font-family="Arial" font-size="6.0" text-anchor="middle" transform="translate(0,301.85) scale(1,-1)" fill="black">Asphalt</text>
      <text x="766.32" y="171.55" font-family="Arial" font-size="6.0" text-anchor="middle" transform="translate(0,343.09) scale(1,-1)" fill="black">Concrete</text>
      <g id="dimension-d5986f77">
        <line x1="371.08" y1="168.35" x2="371.08" y2="253.58" stroke="black" stroke-width="0.5"/>
        <line x1="551.08" y1="168.35" x2="551.08" y2="253.58" stroke="black" stroke-width="0.5"/>
        <line x1="371.08" y1="253.58" x2="551.08" y2="253.58" stroke="black" stroke-width="1"/>
        <polygon points="371.08,253.58 366.08,251.08 366.08,256.08" fill="black" transform="rotate(180.0,371.08,253.58)"/>
        <polygon points="551.08,253.58 546.08,251.08 546.08,256.08" fill="black" transform="rotate(0.0,551.08,253.58)"/>
        <text x="461.08" y="256.58" font-family="Arial" font-size="6.0" text-anchor="middle" transform="translate(0,513.16) scale(1,-1)" fill="black">11'-9.7"</text>
      </g>
      <text x="614.48" y="233.58" font-family="Arial" font-size="7.5" text-anchor="middle" transform="translate(0,467.16) scale(1,-1)" fill="black">Lane</text>
      <g id="dimension-f4a90167">
        <line x1="551.08" y1="168.35" x2="551.08" y2="253.58" stroke="black" stroke-width="0.5"/>
        <line x1="731.08" y1="168.35" x2="731.08" y2="253.58" stroke="black" stroke-width="0.5"/>
        <line x1="551.08" y1="253.58" x2="731.08" y2="253.58" stroke="black" stroke-width="1"/>
        <polygon points="551.08,253.58 546.08,251.08 546.08,256.08" fill="black" transform="rotate(180.0,551.08,253.58)"/>
        <polygon points="731.08,253.58 726.08,251.08 726.08,256.08" fill="black" transform="rotate(0.0,731.08,253.58)"/>
        <text x="641.08" y="256.58" font-family="Arial" font-size="6.0" text-anchor="middle" transform="translate(0,513.16) scale(1,-1)" fill="black">11'-9.7"</text>
      </g>
      <text x="717.92" y="233.58" font-family="Arial" font-size="7.5" text-anchor="middle" transform="translate(0,467.16) scale(1,-1)" fill="black">Lane</text>
      <text x="434.48" y="233.58" font-family="Arial" font-size="7.5" text-anchor="middle" transform="translate(0,467.16) scale(1,-1)" fill="black">Curb</text>
      <text x="774.72" y="233.58" font-family="Arial" font-size="7.5" text-anchor="middle" transform="translate(0,467.16) scale(1,-1)" fill="black">Curb</text>
      <g id="leader-6c26b65c">
        <polyline points="731.08,157.80 748.58,116.00 756.08,116.00" fill="none" stroke="black" stroke-width="1"/>
        <polygon points="731.08,157.80 726.08,155.30 726.08,160.30" fill="black" transform="rotate(112.71712470780987,731.08,157.80)"/>
        <text x="761.08" y="116.00" font-family="Arial" font-size="7.5" text-anchor="start" transform="translate(0,232.00) scale(1,-1)" fill="black">Asphalt (2")</text>
      </g>
      <g id="leader-f613baec">
        <polyline points="731.08,147.80 748.58,107.00 756.08,107.00" fill="none" stroke="black" stroke-width="1"/>
        <polygon points="731.08,147.80 726.08,145.30 726.08,150.30" fill="black" transform="rotate(113.21553691348282,731.08,147.80)"/>
        <text x="761.08" y="107.00" font-family="Arial" font-size="7.5" text-anchor="start" transform="translate(0,214.00) scale(1,-1)" fill="black">Aggregate Base (8")</text>
      </g>
      <g id="leader-09448484">
        <polyline points="761.56,151.55 779.06,98.00 786.56,98.00" fill="none" stroke="black" stroke-width="1"/>
        <polygon points="761.56,151.55 756.56,149.05 756.56,154.05" fill="black" transform="rotate(108.09883630841638,761.56,151.55)"/>
        <text x="791.56" y="98.00" font-family="Arial" font-size="7.5" text-anchor="start" transform="translate(0,196.00) scale(1,-1)" fill="black">Concrete (12")</text>
      </g>
    </g>
  </g>
  <!-- Legend -->
  <text x="10" y="20" font-family="Arial" font-size="14" font-weight="bold">Two-Lane Road with Curb and Gutter</text>
  <rect x="10" y="40" width="15" height="15" fill="#2C3E50"/>
  <text x="30" y="52" font-family="Arial" font-size="12">AsphaltLayer</text>
  <rect x="10" y="60" width="15" height="15" fill="#95A5A6"/>
  <text x="30" y="72" font-family="Arial" font-size="12">ConcreteLayer</text>
  <rect x="10" y="80" width="15" height="15" fill="#7F8C8D"/>
  <text x="30" y="92" font-family="Arial" font-size="12">CrushedRockLayer</text>
  <!-- Scale -->
  <line x1="10" y1="371.580000000002" x2="162.39999512320014" y2="371.580000000002" stroke="black" stroke-width="2"/>
  <line x1="10" y1="366.580000000002" x2="10" y2="376.580000000002" stroke="black" stroke-width="2"/>
  <line x1="162.39999512320014" y1="366.580000000002" x2="162.39999512320014" y2="376.580000000002" stroke="black" stroke-width="2"/>
  <text x="86.19999756160007" y="391.580000000002" font-family="Arial" font-size="12" text-anchor="middle">10ft</text>
</svg>
