<svg xmlns="http://www.w3.org/2000/svg" width="1138.4" height="407.0" viewBox="0 0 1138.4 407.0">
  <title>Two-Lane Road with Slumped Shoulders</title>
  <rect width="1138.4" height="407.0" fill="white"/>
  <g transform="scale(1,-1)">
    <g transform="translate(0,-407.0)">
      <polygon points="730.40,155.50 730.40,153.00 550.40,149.40 550.40,151.90" fill="#2C3E50" stroke="black" stroke-width="1"/>
      <polygon points="730.40,153.00 730.40,149.25 550.40,145.65 550.40,149.40" fill="#2C3E50" stroke="black" stroke-width="1"/>
      <polygon points="730.40,149.25 730.40,139.25 550.40,135.65 550.40,145.65" fill="#7F8C8D" stroke="black" stroke-width="1"/>
      <polygon points="550.40,151.90 550.40,149.90 428.40,147.50 430.40,149.50" fill="#2C3E50" stroke="black" stroke-width="1"/>
      <polygon points="550.40,149.90 550.40,147.40 425.90,145.00 428.40,147.50" fill="#2C3E50" stroke="black" stroke-width="1"/>
      <polygon points="550.40,147.40 550.40,144.40 422.90,142.00 425.90,145.00" fill="#2C3E50" stroke="black" stroke-width="1"/>
      <polygon points="550.40,144.40 550.40,134.40 360.40,132.00 430.40,149.50 422.90,142.00" fill="#7F8C8D" stroke="black" stroke-width="1"/>
      <polygon points="730.40,155.50 910.40,151.90 910.40,149.40 730.40,153.00" fill="#2C3E50" stroke="black" stroke-width="1"/>
      <polygon points="730.40,153.00 910.40,149.40 910.40,145.65 730.40,149.25" fill="#2C3E50" stroke="black" stroke-width="1"/>
      <polygon points="730.40,149.25 910.40,145.65 910.40,135.65 730.40,139.25" fill="#7F8C8D" stroke="black" stroke-width="1"/>
      <polygon points="910.40,151.90 1030.40,149.50 1032.40,147.50 910.40,149.90" fill="#2C3E50" stroke="black" stroke-width="1"/>
      <polygon points="910.40,149.90 1032.40,147.50 1034.90,145.00 910.40,147.40" fill="#2C3E50" stroke="black" stroke-width="1"/>
      <polygon points="910.40,147.40 1034.90,145.00 1037.90,142.00 910.40,144.40" fill="#2C3E50" stroke="black" stroke-width="1"/>
      <polygon points="910.40,144.40 1037.90,142.00 1030.40,149.50 1100.40,132.00 910.40,134.40" fill="#7F8C8D" stroke="black" stroke-width="1"/>
      <!-- Annotations -->
      <g id="symbol-976f7367" transform="translate(640.40,198.00) scale(1.0) rotate(-180.0)">

        <g>
            <path d="M -5,-15 L 5,-15 L 5,0 L 9,0 L 0,15 L -9,0 L -5,0 Z"
                  fill="black" stroke="black" stroke-width="1"/>
        </g>
    
      </g>
      <g id="symbol-816ab4d7" transform="translate(640.40,178.00) scale(0.8) rotate(-180.0)">

        <g>
            <path d="M -10,0 L 8,0 L 8,-5 L 15,0 L 8,5 L 8,0 Z"
                  fill="black" stroke="black" stroke-width="0.75"/>
        </g>
    
      </g>
      <text x="640.40" y="172.00" font-family="Arial" font-size="5.0" text-anchor="middle" transform="translate(0,344.00) scale(1,-1)" fill="black">2%</text>
      <text x="640.40" y="145.58" font-family="Arial" font-size="6.0" text-anchor="middle" transform="translate(0,291.15) scale(1,-1)" fill="black">Asphalt</text>
      <g id="symbol-d19b0a92" transform="translate(455.40,174.40) scale(0.8) rotate(-180.0)">

        <g>
            <path d="M -10,0 L 8,0 L 8,-5 L 15,0 L 8,5 L 8,0 Z"
                  fill="black" stroke="black" stroke-width="0.75"/>
        </g>
    
      </g>
      <text x="455.40" y="168.40" font-family="Arial" font-size="5.0" text-anchor="middle" transform="translate(0,336.80) scale(1,-1)" fill="black">2%</text>
      <text x="455.40" y="141.95" font-family="Arial" font-size="6.0" text-anchor="middle" transform="translate(0,283.90) scale(1,-1)" fill="black">Asphalt</text>
      <g id="symbol-e2084bac" transform="translate(820.40,198.00) scale(1.0) rotate(-0.0)">

        <g>
            <path d="M -5,-15 L 5,-15 L 5,0 L 9,0 L 0,15 L -9,0 L -5,0 Z"
                  fill="black" stroke="black" stroke-width="1"/>
        </g>
    
      </g>
      <g id="symbol-5f80d93c" transform="translate(820.40,178.00) scale(0.8) rotate(-0.0)">

        <g>
            <path d="M -10,0 L 8,0 L 8,-5 L 15,0 L 8,5 L 8,0 Z"
                  fill="black" stroke="black" stroke-width="0.75"/>
        </g>
    
      </g>
      <text x="820.40" y="172.00" font-family="Arial" font-size="5.0" text-anchor="middle" transform="translate(0,344.00) scale(1,-1)" fill="black">2%</text>
      <text x="820.40" y="145.58" font-family="Arial" font-size="6.0" text-anchor="middle" transform="translate(0,291.15) scale(1,-1)" fill="black">Asphalt</text>
      <g id="symbol-970d6631" transform="translate(1005.40,174.40) scale(0.8) rotate(-0.0)">

        <g>
            <path d="M -10,0 L 8,0 L 8,-5 L 15,0 L 8,5 L 8,0 Z"
                  fill="black" stroke="black" stroke-width="0.75"/>
        </g>
    
      </g>
      <text x="1005.40" y="168.40" font-family="Arial" font-size="5.0" text-anchor="middle" transform="translate(0,336.80) scale(1,-1)" fill="black">2%</text>
      <text x="1005.40" y="279.00" font-family="Arial" font-size="6.0" text-anchor="middle" transform="translate(0,558.00) scale(1,-1)" fill="black">Asphalt</text>
      <g id="dimension-3ab37653">
        <line x1="550.40" y1="163.00" x2="550.40" y2="248.00" stroke="black" stroke-width="0.5"/>
        <line x1="730.40" y1="163.00" x2="730.40" y2="248.00" stroke="black" stroke-width="0.5"/>
        <line x1="550.40" y1="248.00" x2="730.40" y2="248.00" stroke="black" stroke-width="1"/>
        <polygon points="550.40,248.00 545.40,245.50 545.40,250.50" fill="black" transform="rotate(180.0,550.40,248.00)"/>
        <polygon points="730.40,248.00 725.40,245.50 725.40,250.50" fill="black" transform="rotate(0.0,730.40,248.00)"/>
        <text x="640.40" y="251.00" font-family="Arial" font-size="6.0" text-anchor="middle" transform="translate(0,502.00) scale(1,-1)" fill="black">11'-9.7"</text>
      </g>
      <text x="793.80" y="228.00" font-family="Arial" font-size="7.5" text-anchor="middle" transform="translate(0,456.00) scale(1,-1)" fill="black">Lane</text>
      <g id="dimension-7c743366">
        <line x1="360.40" y1="159.40" x2="360.40" y2="248.00" stroke="black" stroke-width="0.5"/>
        <line x1="550.40" y1="159.40" x2="550.40" y2="248.00" stroke="black" stroke-width="0.5"/>
        <line x1="360.40" y1="248.00" x2="550.40" y2="248.00" stroke="black" stroke-width="1"/>
        <polygon points="360.40,248.00 355.40,245.50 355.40,250.50" fill="black" transform="rotate(180.0,360.40,248.00)"/>
        <polygon points="550.40,248.00 545.40,245.50 545.40,250.50" fill="black" transform="rotate(0.0,550.40,248.00)"/>
        <text x="455.40" y="251.00" font-family="Arial" font-size="6.0" text-anchor="middle" transform="translate(0,502.00) scale(1,-1)" fill="black">7'-10.5"</text>
      </g>
      <text x="604.80" y="228.00" font-family="Arial" font-size="7.5" text-anchor="middle" transform="translate(0,456.00) scale(1,-1)" fill="black">Shoulder</text>
      <g id="dimension-ef93a528">
        <line x1="730.40" y1="163.00" x2="730.40" y2="248.00" stroke="black" stroke-width="0.5"/>
        <line x1="910.40" y1="163.00" x2="910.40" y2="248.00" stroke="black" stroke-width="0.5"/>
        <line x1="730.40" y1="248.00" x2="910.40" y2="248.00" stroke="black" stroke-width="1"/>
        <polygon points="730.40,248.00 725.40,245.50 725.40,250.50" fill="black" transform="rotate(180.0,730.40,248.00)"/>
        <polygon points="910.40,248.00 905.40,245.50 905.40,250.50" fill="black" transform="rotate(0.0,910.40,248.00)"/>
        <text x="820.40" y="251.00" font-family="Arial" font-size="6.0" text-anchor="middle" transform="translate(0,502.00) scale(1,-1)" fill="black">11'-9.7"</text>
      </g>
      <text x="978.80" y="228.00" font-family="Arial" font-size="7.5" text-anchor="middle" transform="translate(0,456.00) scale(1,-1)" fill="black">Lane</text>
      <g id="dimension-16dbd680">
        <line x1="910.40" y1="159.40" x2="910.40" y2="248.00" stroke="black" stroke-width="0.5"/>
        <line x1="1100.40" y1="159.40" x2="1100.40" y2="248.00" stroke="black" stroke-width="0.5"/>
        <line x1="910.40" y1="248.00" x2="1100.40" y2="248.00" stroke="black" stroke-width="1"/>
        <polygon points="910.40,248.00 905.40,245.50 905.40,250.50" fill="black" transform="rotate(180.0,910.40,248.00)"/>
        <polygon points="1100.40,248.00 1095.40,245.50 1095.40,250.50" fill="black" transform="rotate(0.0,1100.40,248.00)"/>
        <text x="1005.40" y="251.00" font-family="Arial" font-size="6.0" text-anchor="middle" transform="translate(0,502.00) scale(1,-1)" fill="black">7'-10.5"</text>
      </g>
      <text x="1041.00" y="228.00" font-family="Arial" font-size="7.5" text-anchor="middle" transform="translate(0,456.00) scale(1,-1)" fill="black">Shoulder</text>
      <g id="leader-3b00f865">
        <polyline points="910.40,152.45 927.90,107.00 935.40,107.00" fill="none" stroke="black" stroke-width="1"/>
        <polygon points="910.40,152.45 905.40,149.95 905.40,154.95" fill="black" transform="rotate(111.05862688630455,910.40,152.45)"/>
        <text x="940.40" y="107.00" font-family="Arial" font-size="7.5" text-anchor="start" transform="translate(0,214.00) scale(1,-1)" fill="black">Asphalt (2")</text>
      </g>
      <g id="leader-ee44c505">
        <polyline points="910.40,142.45 927.90,98.00 935.40,98.00" fill="none" stroke="black" stroke-width="1"/>
        <polygon points="910.40,142.45 905.40,139.95 905.40,144.95" fill="black" transform="rotate(111.48959879859865,910.40,142.45)"/>
        <text x="940.40" y="98.00" font-family="Arial" font-size="7.5" text-anchor="start" transform="translate(0,196.00) scale(1,-1)" fill="black">Aggregate Base (8")</text>
      </g>
    </g>
  </g>
  <!-- Legend -->
  <text x="10" y="20" font-family="Arial" font-size="14" font-weight="bold">Two-Lane Road with Slumped Shoulders</text>
  <rect x="10" y="40" width="15" height="15" fill="#2C3E50"/>
  <text x="30" y="52" font-family="Arial" font-size="12">AsphaltLayer</text>
  <rect x="10" y="60" width="15" height="15" fill="#7F8C8D"/>
  <text x="30" y="72" font-family="Arial" font-size="12">CrushedRockLayer</text>
  <!-- Scale -->
  <line x1="10" y1="377.0000000000015" x2="162.39999512320014" y2="377.0000000000015" stroke="black" stroke-width="2"/>
  <line x1="10" y1="372.0000000000015" x2="10" y2="382.0000000000015" stroke="black" stroke-width="2"/>
  <line x1="162.39999512320014" y1="372.0000000000015" x2="162.39999512320014" y2="382.0000000000015" stroke="black" stroke-width="2"/>
  <text x="86.19999756160007" y="397.0000000000015" font-family="Arial" font-size="12" text-anchor="middle">10ft</text>
</svg>
