<?xml version="1.0" encoding="UTF-8"?>
<svg xmlns="http://www.w3.org/2000/svg" width="1370.0" height="786.0" viewBox="0 0 1370.0 786.0">
  <title>Test Layered Section</title>
  <rect width="1370.0" height="786.0" fill="white"/>
  <g id="geometry" transform="translate(190.0,0)">
    <g transform="translate(0,736.000) scale(1,-1)">
      <g transform="translate(410.000,49514.000)">
        <polygon points="0.000,50000.000 0.000,49875.000 -360.000,49839.000 -360.000,49964.000" fill="#95A5A6" stroke="#333333" stroke-width="0.8"/>
        <polygon points="0.000,49875.000 0.000,49800.000 -360.000,49764.000 -360.000,49839.000" fill="#7F8C8D" stroke="#333333" stroke-width="0.8"/>
        <polygon points="0.000,50000.000 360.000,49964.000 360.000,49939.000 0.000,49975.000" fill="#2C3E50" stroke="#333333" stroke-width="0.8"/>
        <polygon points="0.000,49975.000 360.000,49939.000 360.000,49901.500 0.000,49937.500" fill="#2C3E50" stroke="#333333" stroke-width="0.8"/>
        <polygon points="0.000,49937.500 360.000,49901.500 360.000,49801.500 0.000,49837.500" fill="#7F8C8D" stroke="#333333" stroke-width="0.8"/>
        <polygon points="360.000,49964.000 720.000,49928.000 720.000,49903.000 360.000,49939.000" fill="#2C3E50" stroke="#333333" stroke-width="0.8"/>
        <polygon points="360.000,49939.000 720.000,49903.000 720.000,49865.500 360.000,49901.500" fill="#2C3E50" stroke="#333333" stroke-width="0.8"/>
        <polygon points="360.000,49901.500 720.000,49865.500 720.000,49765.500 360.000,49801.500" fill="#7F8C8D" stroke="#333333" stroke-width="0.8"/>
      </g>
    </g>
  </g>
  <text x="10" y="24" font-family="Arial" font-size="13" font-weight="bold">Test Layered Section</text>
  <rect x="10" y="34" width="14" height="14" fill="#95A5A6" stroke="#333" stroke-width="0.5"/>
  <text x="30" y="45" font-family="Arial" font-size="11">ConcreteLayer</text>
  <rect x="10" y="54" width="14" height="14" fill="#7F8C8D" stroke="#333" stroke-width="0.5"/>
  <text x="30" y="65" font-family="Arial" font-size="11">CrushedRockLayer</text>
  <rect x="10" y="74" width="14" height="14" fill="#2C3E50" stroke="#333" stroke-width="0.5"/>
  <text x="30" y="85" font-family="Arial" font-size="11">AsphaltLayer</text>
  <line x1="10" y1="756.0000000000042" x2="314.8" y2="756.0000000000042" stroke="black" stroke-width="2"/>
  <line x1="10.0" y1="751.0000000000042" x2="10.0" y2="761.0000000000042" stroke="black" stroke-width="2"/>
  <line x1="314.8" y1="751.0000000000042" x2="314.8" y2="761.0000000000042" stroke="black" stroke-width="2"/>
  <text x="162.4" y="774.0000000000042" font-family="Arial" font-size="11" text-anchor="middle">10 ft</text>
</svg>
