<svg xmlns="http://www.w3.org/2000/svg" width="1806.9" height="268.7" viewBox="0 0 1806.9 268.7">
  <title>Crowned Road with Ditches</title>
  <rect width="1806.9" height="268.7" fill="white"/>
  <g transform="scale(1,-1)">
    <g transform="translate(0,-268.7)">
      <polygon points="537.68,85.36 903.44,92.67 903.44,77.67 537.68,70.36" fill="#BDC3C7" stroke="black" stroke-width="1"/>
      <polygon points="903.44,92.67 1269.20,85.36 1269.20,70.36 903.44,77.67" fill="#BDC3C7" stroke="black" stroke-width="1"/>
      <polygon points="293.84,80.48 537.68,85.36 537.68,70.36 293.84,65.48" fill="#BDC3C7" stroke="black" stroke-width="1"/>
      <polygon points="1269.20,85.36 1513.04,80.48 1513.04,65.48 1269.20,70.36" fill="#BDC3C7" stroke="black" stroke-width="1"/>
      <polyline points="293.84,80.48 171.92,50.00 50.00,80.48" fill="none" stroke="black" stroke-width="1.5"/>
      <polyline points="1513.04,80.48 1634.96,50.00 1756.88,80.48" fill="none" stroke="black" stroke-width="1.5"/>
      <!-- Annotations -->
      <g id="dimension-f27629a6">
        <line x1="293.84" y1="92.67" x2="293.84" y2="142.67" stroke="black" stroke-width="0.5"/>
        <line x1="537.68" y1="92.67" x2="537.68" y2="142.67" stroke="black" stroke-width="0.5"/>
        <line x1="293.84" y1="142.67" x2="537.68" y2="142.67" stroke="black" stroke-width="1"/>
        <polygon points="293.84,142.67 288.84,140.17 288.84,145.17" fill="black" transform="rotate(180.0,293.84,142.67)"/>
        <polygon points="537.68,142.67 532.68,140.17 532.68,145.17" fill="black" transform="rotate(0.0,537.68,142.67)"/>
        <text x="415.76" y="148.67" font-family="Arial" font-size="12.0" text-anchor="middle" transform="translate(0,297.34) scale(1,-1)" fill="black">8'-0"</text>
      </g>
      <g id="dimension-6401194f">
        <line x1="537.68" y1="92.67" x2="537.68" y2="142.67" stroke="black" stroke-width="0.5"/>
        <line x1="903.44" y1="92.67" x2="903.44" y2="142.67" stroke="black" stroke-width="0.5"/>
        <line x1="537.68" y1="142.67" x2="903.44" y2="142.67" stroke="black" stroke-width="1"/>
        <polygon points="537.68,142.67 532.68,140.17 532.68,145.17" fill="black" transform="rotate(180.0,537.68,142.67)"/>
        <polygon points="903.44,142.67 898.44,140.17 898.44,145.17" fill="black" transform="rotate(0.0,903.44,142.67)"/>
        <text x="720.56" y="148.67" font-family="Arial" font-size="12.0" text-anchor="middle" transform="translate(0,297.34) scale(1,-1)" fill="black">12'-0"</text>
      </g>
      <g id="dimension-f9c4a374">
        <line x1="903.44" y1="92.67" x2="903.44" y2="142.67" stroke="black" stroke-width="0.5"/>
        <line x1="1269.20" y1="92.67" x2="1269.20" y2="142.67" stroke="black" stroke-width="0.5"/>
        <line x1="903.44" y1="142.67" x2="1269.20" y2="142.67" stroke="black" stroke-width="1"/>
        <polygon points="903.44,142.67 898.44,140.17 898.44,145.17" fill="black" transform="rotate(180.0,903.44,142.67)"/>
        <polygon points="1269.20,142.67 1264.20,140.17 1264.20,145.17" fill="black" transform="rotate(0.0,1269.20,142.67)"/>
        <text x="1086.32" y="148.67" font-family="Arial" font-size="12.0" text-anchor="middle" transform="translate(0,297.34) scale(1,-1)" fill="black">12'-0"</text>
      </g>
      <g id="dimension-5c7c455c">
        <line x1="1269.20" y1="92.67" x2="1269.20" y2="142.67" stroke="black" stroke-width="0.5"/>
        <line x1="1513.04" y1="92.67" x2="1513.04" y2="142.67" stroke="black" stroke-width="0.5"/>
        <line x1="1269.20" y1="142.67" x2="1513.04" y2="142.67" stroke="black" stroke-width="1"/>
        <polygon points="1269.20,142.67 1264.20,140.17 1264.20,145.17" fill="black" transform="rotate(180.0,1269.20,142.67)"/>
        <polygon points="1513.04,142.67 1508.04,140.17 1508.04,145.17" fill="black" transform="rotate(0.0,1513.04,142.67)"/>
        <text x="1391.12" y="148.67" font-family="Arial" font-size="12.0" text-anchor="middle" transform="translate(0,297.34) scale(1,-1)" fill="black">8'-0"</text>
      </g>
      <g id="dimension-59778e5a">
        <line x1="293.84" y1="92.67" x2="293.84" y2="212.67" stroke="black" stroke-width="0.5"/>
        <line x1="1513.04" y1="92.67" x2="1513.04" y2="212.67" stroke="black" stroke-width="0.5"/>
        <line x1="293.84" y1="212.67" x2="1513.04" y2="212.67" stroke="black" stroke-width="1"/>
        <polygon points="293.84,212.67 288.84,210.17 288.84,215.17" fill="black" transform="rotate(180.0,293.84,212.67)"/>
        <polygon points="1513.04,212.67 1508.04,210.17 1508.04,215.17" fill="black" transform="rotate(0.0,1513.04,212.67)"/>
        <text x="903.44" y="218.67" font-family="Arial" font-size="12.0" text-anchor="middle" transform="translate(0,437.34) scale(1,-1)" fill="black">40'-0"</text>
      </g>
      <g id="leader-db2a639a">
        <polyline points="903.44,92.67 1003.44,122.67 1153.44,122.67" fill="none" stroke="black" stroke-width="1"/>
        <polygon points="903.44,92.67 898.44,90.17 898.44,95.17" fill="black" transform="rotate(-163.30075576600652,903.44,92.67)"/>
        <text x="1158.44" y="122.67" font-family="Arial" font-size="15.0" text-anchor="start" transform="translate(0,245.34) scale(1,-1)" fill="black">Crown</text>
      </g>
    </g>
  </g>
  <!-- Legend -->
  <text x="10" y="20" font-family="Arial" font-size="14" font-weight="bold">Crowned Road with Ditches</text>
  <!-- Scale -->
  <line x1="10" y1="238.6719999999994" x2="619.5999804928006" y2="238.6719999999994" stroke="black" stroke-width="2"/>
  <line x1="10" y1="233.6719999999994" x2="10" y2="243.6719999999994" stroke="black" stroke-width="2"/>
  <line x1="619.5999804928006" y1="233.6719999999994" x2="619.5999804928006" y2="243.6719999999994" stroke="black" stroke-width="2"/>
  <text x="314.7999902464003" y="258.6719999999994" font-family="Arial" font-size="12" text-anchor="middle">20ft</text>
</svg>
