<svg xmlns="http://www.w3.org/2000/svg" width="764.0" height="69.9" viewBox="0 0 764.0 69.9">
  <title>Two-Lane Road with Shoulders</title>
  <rect width="764.0" height="69.9" fill="white"/>
  <g transform="scale(1,-1)">
    <g transform="translate(0,-69.9)">
      <polygon points="382.00,44.85 382.00,42.35 202.00,38.75 202.00,41.25" fill="#2C3E50" stroke="black" stroke-width="1"/>
      <polygon points="382.00,42.35 382.00,38.60 202.00,35.00 202.00,38.75" fill="#2C3E50" stroke="black" stroke-width="1"/>
      <polygon points="382.00,38.60 382.00,28.60 202.00,25.00 202.00,35.00" fill="#7F8C8D" stroke="black" stroke-width="1"/>
      <polygon points="202.00,41.25 202.00,39.25 70.00,36.85 82.00,38.85" fill="#2C3E50" stroke="black" stroke-width="1"/>
      <polygon points="202.00,39.25 202.00,31.75 25.00,29.35 70.00,36.85" fill="#7F8C8D" stroke="black" stroke-width="1"/>
      <polygon points="382.00,44.85 562.00,41.25 562.00,38.75 382.00,42.35" fill="#2C3E50" stroke="black" stroke-width="1"/>
      <polygon points="382.00,42.35 562.00,38.75 562.00,35.00 382.00,38.60" fill="#2C3E50" stroke="black" stroke-width="1"/>
      <polygon points="382.00,38.60 562.00,35.00 562.00,25.00 382.00,28.60" fill="#7F8C8D" stroke="black" stroke-width="1"/>
      <polygon points="562.00,41.25 682.00,38.85 694.00,36.85 562.00,39.25" fill="#2C3E50" stroke="black" stroke-width="1"/>
      <polygon points="562.00,39.25 694.00,36.85 739.00,29.35 562.00,31.75" fill="#7F8C8D" stroke="black" stroke-width="1"/>
    </g>
  </g>
  <!-- Legend -->
  <text x="10" y="20" font-family="Arial" font-size="14" font-weight="bold">Two-Lane Road with Shoulders</text>
  <rect x="10" y="40" width="15" height="15" fill="#2C3E50"/>
  <text x="30" y="52" font-family="Arial" font-size="12">AsphaltLayer</text>
  <rect x="10" y="60" width="15" height="15" fill="#7F8C8D"/>
  <text x="30" y="72" font-family="Arial" font-size="12">CrushedRockLayer</text>
  <!-- Scale -->
  <line x1="10" y1="39.85000000000028" x2="260.0" y2="39.85000000000028" stroke="black" stroke-width="2"/>
  <line x1="10" y1="34.85000000000028" x2="10" y2="44.85000000000028" stroke="black" stroke-width="2"/>
  <line x1="260.0" y1="34.85000000000028" x2="260.0" y2="44.85000000000028" stroke="black" stroke-width="2"/>
  <text x="135.0" y="59.85000000000028" font-family="Arial" font-size="12" text-anchor="middle">5m</text>
</svg>
