<svg xmlns="http://www.w3.org/2000/svg" width="790.0" height="73.5" viewBox="0 0 790.0 73.5">
  <title>Two-Lane Road with Slumped Shoulders</title>
  <rect width="790.0" height="73.5" fill="white"/>
  <g transform="scale(1,-1)">
    <g transform="translate(0,-73.5)">
      <polygon points="395.00,48.50 395.00,46.00 215.00,42.40 215.00,44.90" fill="#2C3E50" stroke="black" stroke-width="1"/>
      <polygon points="395.00,46.00 395.00,42.25 215.00,38.65 215.00,42.40" fill="#2C3E50" stroke="black" stroke-width="1"/>
      <polygon points="395.00,42.25 395.00,32.25 215.00,28.65 215.00,38.65" fill="#7F8C8D" stroke="black" stroke-width="1"/>
      <polygon points="215.00,44.90 215.00,42.90 93.00,40.50 95.00,42.50" fill="#2C3E50" stroke="black" stroke-width="1"/>
      <polygon points="215.00,42.90 215.00,40.40 90.50,38.00 93.00,40.50" fill="#2C3E50" stroke="black" stroke-width="1"/>
      <polygon points="215.00,40.40 215.00,37.40 87.50,35.00 90.50,38.00" fill="#2C3E50" stroke="black" stroke-width="1"/>
      <polygon points="215.00,37.40 215.00,27.40 25.00,25.00 95.00,42.50 87.50,35.00" fill="#7F8C8D" stroke="black" stroke-width="1"/>
      <polygon points="395.00,48.50 575.00,44.90 575.00,42.40 395.00,46.00" fill="#2C3E50" stroke="black" stroke-width="1"/>
      <polygon points="395.00,46.00 575.00,42.40 575.00,38.65 395.00,42.25" fill="#2C3E50" stroke="black" stroke-width="1"/>
      <polygon points="395.00,42.25 575.00,38.65 575.00,28.65 395.00,32.25" fill="#7F8C8D" stroke="black" stroke-width="1"/>
      <polygon points="575.00,44.90 695.00,42.50 697.00,40.50 575.00,42.90" fill="#2C3E50" stroke="black" stroke-width="1"/>
      <polygon points="575.00,42.90 697.00,40.50 699.50,38.00 575.00,40.40" fill="#2C3E50" stroke="black" stroke-width="1"/>
      <polygon points="575.00,40.40 699.50,38.00 702.50,35.00 575.00,37.40" fill="#2C3E50" stroke="black" stroke-width="1"/>
      <polygon points="575.00,37.40 702.50,35.00 695.00,42.50 765.00,25.00 575.00,27.40" fill="#7F8C8D" stroke="black" stroke-width="1"/>
    </g>
  </g>
  <!-- Legend -->
  <text x="10" y="20" font-family="Arial" font-size="14" font-weight="bold">Two-Lane Road with Slumped Shoulders</text>
  <rect x="10" y="40" width="15" height="15" fill="#2C3E50"/>
  <text x="30" y="52" font-family="Arial" font-size="12">AsphaltLayer</text>
  <rect x="10" y="60" width="15" height="15" fill="#7F8C8D"/>
  <text x="30" y="72" font-family="Arial" font-size="12">CrushedRockLayer</text>
  <!-- Scale -->
  <line x1="10" y1="43.49999999999994" x2="260.0" y2="43.49999999999994" stroke="black" stroke-width="2"/>
  <line x1="10" y1="38.49999999999994" x2="10" y2="48.49999999999994" stroke="black" stroke-width="2"/>
  <line x1="260.0" y1="38.49999999999994" x2="260.0" y2="48.49999999999994" stroke="black" stroke-width="2"/>
  <text x="135.0" y="63.49999999999994" font-family="Arial" font-size="12" text-anchor="middle">5m</text>
</svg>
